# xmcd
#
# Track frame offsets: 
#        150
#        23606
#        53152
#        89524
#        118516
#        148800
#        170883
#        194707
#        205872
#        222393
#        241296
#        255716
#        271104
#        288828
#        308351
#        325704
#
# Disc length: 4569 seconds
#
# Revision: 3
# Processed by: cddbd v1.5.2PL0 Copyright (c) Steve Scherf et al.
# Submitted via: ExactAudioCopy v0.95a4
#
DISCID=eb11d710
DTITLE=Wolle Kriwanek Band - Spätlese
DYEAR=2003
DGENRE=Blues
TTITLE0=Außer Betrieb
TTITLE1=Badwanna Blues Revisited
TTITLE2=Danke, mir geht's gut
TTITLE3=Easy Rider
TTITLE4=Morgasonn
TTITLE5=Knallroter Porsche Midlife-Krise
TTITLE6=Rattenfänger Revisited
TTITLE7=Manni and The Motors
TTITLE8=Was für 'ne Party
TTITLE9=Vollgedröhnt
TTITLE10=Hank C. Holiday
TTITLE11=Egoist
TTITLE12=Frauen
TTITLE13=Gib deim Herz 'n Stoß (2003)
TTITLE14=Motion and Emotion
TTITLE15=Stuttgart kommt
EXTD=Year: 2003\n\n\n                                                 
EXTD=www.wollekriwanekband.de\n\n\nTrack 01 - 07   (Live: Die "
EXTD=verschollenen" Aufnahmen]\n\nTrack 08 - 13   (Im Studio: Aus dem 
EXTD=Rock-Musical "Manni and The Motors"]\n\nTrack 14 - 16   (Sonderprod
EXTD=uktionen and sportliche Saitensprünge)
EXTT0=
EXTT1=
EXTT2=
EXTT3=
EXTT4=
EXTT5=
EXTT6=
EXTT7=
EXTT8=
EXTT9=
EXTT10=
EXTT11=
EXTT12=
EXTT13=
EXTT14=
EXTT15=
PLAYORDER=
